<svg width="36" height="36" viewBox="0 0 36 36" fill="none" xmlns="http://www.w3.org/2000/svg">
<g clip-path="url(#clip0_9346_25)">
<path d="M10.5 27C8.85 27 7.515 28.35 7.515 30C7.515 31.65 8.85 33 10.5 33C12.15 33 13.5 31.65 13.5 30C13.5 28.35 12.15 27 10.5 27ZM1.5 3V6H4.5L9.9 17.385L7.875 21.06C7.635 21.48 7.5 21.975 7.5 22.5C7.5 24.15 8.85 25.5 10.5 25.5H28.5V22.5H11.13C10.92 22.5 10.755 22.335 10.755 22.125L10.8 21.945L12.15 19.5H23.325C24.45 19.5 25.44 18.885 25.95 17.955L31.32 8.22C31.44 8.01 31.5 7.755 31.5 7.5C31.5 6.675 30.825 6 30 6H7.815L6.405 3H1.5ZM25.5 27C23.85 27 22.515 28.35 22.515 30C22.515 31.65 23.85 33 25.5 33C27.15 33 28.5 31.65 28.5 30C28.5 28.35 27.15 27 25.5 27Z" fill="#2D2D2D"/>
<circle cx="29" cy="7" r="7" fill="white"/>
<path d="M29.214 1.766C29.6807 1.766 30.1077 1.836 30.495 1.976C30.8823 2.11133 31.2137 2.305 31.489 2.557C31.7643 2.809 31.979 3.11233 32.133 3.467C32.287 3.82167 32.364 4.216 32.364 4.65C32.364 5.02333 32.308 5.36867 32.196 5.686C32.0887 6.00333 31.9417 6.30667 31.755 6.596C31.573 6.88533 31.3583 7.16533 31.111 7.436C30.8637 7.70667 30.6047 7.982 30.334 8.262L28.052 10.593C28.276 10.5277 28.4953 10.4787 28.71 10.446C28.9247 10.4087 29.13 10.39 29.326 10.39H31.923C32.1097 10.39 32.2567 10.4437 32.364 10.551C32.476 10.6537 32.532 10.7913 32.532 10.964V12H25.588V11.426C25.588 11.3093 25.6113 11.188 25.658 11.062C25.7093 10.936 25.7887 10.8193 25.896 10.712L28.969 7.632C29.2257 7.37067 29.4543 7.121 29.655 6.883C29.8603 6.645 30.0307 6.40933 30.166 6.176C30.306 5.94267 30.411 5.707 30.481 5.469C30.5557 5.22633 30.593 4.972 30.593 4.706C30.593 4.46333 30.558 4.251 30.488 4.069C30.418 3.88233 30.3177 3.726 30.187 3.6C30.0563 3.474 29.9 3.38067 29.718 3.32C29.5407 3.25467 29.34 3.222 29.116 3.222C28.7007 3.222 28.3577 3.327 28.087 3.537C27.821 3.747 27.6343 4.02933 27.527 4.384C27.4757 4.56133 27.3987 4.68967 27.296 4.769C27.1933 4.84367 27.0627 4.881 26.904 4.881C26.834 4.881 26.757 4.874 26.673 4.86L25.763 4.699C25.833 4.21367 25.9683 3.789 26.169 3.425C26.3697 3.05633 26.6193 2.75067 26.918 2.508C27.2213 2.26067 27.5667 2.07633 27.954 1.955C28.346 1.829 28.766 1.766 29.214 1.766Z" fill="#3670C7"/>
</g>
<defs>
<clipPath id="clip0_9346_25">
<rect width="36" height="36" fill="white"/>
</clipPath>
</defs>
</svg>
